<svg width="400" height="120" viewBox="0 0 400 120" xmlns="http://www.w3.org/2000/svg">
  <rect x="0.5" y="0.5" width="399" height="119" rx="6" fill="#0d1117" stroke="#30363d" stroke-width="1" />
    <svg x="20" y="16" width="16" height="16" viewBox="0 0 16 16" fill="#8b949e"><path d="M2 2.5A2.5 2.5 0 014.5 0h8.75a.75.75 0 01.75.75v12.5a.75.75 0 01-.75.75h-2.5a.75.75 0 110-1.5h1.75v-2h-8a1 1 0 00-.714 1.7.75.75 0 01-1.072 1.05A2.495 2.495 0 012 11.5v-9zm10.5-1h-8a1 1 0 00-1 1v6.708A2.486 2.486 0 014.5 9h8V1.5zm-8 11h8v1h-8a1 1 0 010-2z"/></svg>

    <text x="42" y="30" fill="#58a6ff" font-size="14" font-weight="600" font-family="-apple-system,BlinkMacSystemFont,'Segoe UI',Helvetica,Arial,sans-serif">.claude</text>
    <text x="20" y="55" fill="#8b949e" font-size="12.5" font-family="-apple-system,BlinkMacSystemFont,'Segoe UI',Helvetica,Arial,sans-serif">Dotfiles-style repo for ~/.claude configuration</text>
    <rect x="20" y="86" width="55.0" height="20" rx="10" fill="#89e051" opacity="0.15" />
    <circle cx="30" cy="96.0" r="4" fill="#89e051" />
    <text x="38" y="100" fill="#8b949e" font-size="11" font-weight="500" font-family="-apple-system,BlinkMacSystemFont,'Segoe UI',Helvetica,Arial,sans-serif">Shell</text>
</svg>
