<svg width="552" height="140" viewBox="0 0 552 140" xmlns="http://www.w3.org/2000/svg">
  <rect x="0.5" y="0.5" width="551" height="139" rx="6" fill="#ffffff" stroke="#d0d7de" stroke-width="1" />
  <text x="16" y="32" fill="#1f2328" font-size="14" font-weight="600" font-family="-apple-system,BlinkMacSystemFont,'Segoe UI',Helvetica,Arial,sans-serif">ai-mktpl Commit Activity</text>
  <text x="536" y="32" fill="#656d76" font-size="11" text-anchor="end" font-family="-apple-system,BlinkMacSystemFont,'Segoe UI',Helvetica,Arial,sans-serif">1631 commits in 52 weeks</text>
  <rect x="16" y="104" width="8" height="2" rx="1" fill="#ebedf0"><title>0 commits (week 1)</title></rect>
  <rect x="26" y="104" width="8" height="2" rx="1" fill="#ebedf0"><title>0 commits (week 2)</title></rect>
  <rect x="36" y="104" width="8" height="2" rx="1" fill="#ebedf0"><title>0 commits (week 3)</title></rect>
  <rect x="46" y="104" width="8" height="2" rx="1" fill="#ebedf0"><title>0 commits (week 4)</title></rect>
  <rect x="56" y="104" width="8" height="2" rx="1" fill="#ebedf0"><title>0 commits (week 5)</title></rect>
  <rect x="66" y="104" width="8" height="2" rx="1" fill="#ebedf0"><title>0 commits (week 6)</title></rect>
  <rect x="76" y="104" width="8" height="2" rx="1" fill="#ebedf0"><title>0 commits (week 7)</title></rect>
  <rect x="86" y="104" width="8" height="2" rx="1" fill="#ebedf0"><title>0 commits (week 8)</title></rect>
  <rect x="96" y="104" width="8" height="2" rx="1" fill="#ebedf0"><title>0 commits (week 9)</title></rect>
  <rect x="106" y="104" width="8" height="2" rx="1" fill="#ebedf0"><title>0 commits (week 10)</title></rect>
  <rect x="116" y="104" width="8" height="2" rx="1" fill="#ebedf0"><title>0 commits (week 11)</title></rect>
  <rect x="126" y="104" width="8" height="2" rx="1" fill="#ebedf0"><title>0 commits (week 12)</title></rect>
  <rect x="136" y="104" width="8" height="2" rx="1" fill="#ebedf0"><title>0 commits (week 13)</title></rect>
  <rect x="146" y="104" width="8" height="2" rx="1" fill="#ebedf0"><title>0 commits (week 14)</title></rect>
  <rect x="156" y="104" width="8" height="2" rx="1" fill="#ebedf0"><title>0 commits (week 15)</title></rect>
  <rect x="166" y="104" width="8" height="2" rx="1" fill="#ebedf0"><title>0 commits (week 16)</title></rect>
  <rect x="176" y="104" width="8" height="2" rx="1" fill="#ebedf0"><title>0 commits (week 17)</title></rect>
  <rect x="186" y="104" width="8" height="2" rx="1" fill="#ebedf0"><title>0 commits (week 18)</title></rect>
  <rect x="196" y="104" width="8" height="2" rx="1" fill="#ebedf0"><title>0 commits (week 19)</title></rect>
  <rect x="206" y="104" width="8" height="2" rx="1" fill="#ebedf0"><title>0 commits (week 20)</title></rect>
  <rect x="216" y="104" width="8" height="2" rx="1" fill="#ebedf0"><title>0 commits (week 21)</title></rect>
  <rect x="226" y="102" width="8" height="2" rx="1" fill="#9be9a8"><title>28 commits (week 22)</title></rect>
  <rect x="236" y="99" width="8" height="5" rx="1" fill="#9be9a8"><title>66 commits (week 23)</title></rect>
  <rect x="246" y="96" width="8" height="8" rx="1" fill="#9be9a8"><title>95 commits (week 24)</title></rect>
  <rect x="256" y="99" width="8" height="5" rx="1" fill="#9be9a8"><title>59 commits (week 25)</title></rect>
  <rect x="266" y="98" width="8" height="6" rx="1" fill="#9be9a8"><title>78 commits (week 26)</title></rect>
  <rect x="276" y="44" width="8" height="60" rx="1" fill="#216e39"><title>706 commits (week 27)</title></rect>
  <rect x="286" y="101" width="8" height="3" rx="1" fill="#9be9a8"><title>37 commits (week 28)</title></rect>
  <rect x="296" y="103" width="8" height="1" rx="1" fill="#9be9a8"><title>15 commits (week 29)</title></rect>
  <rect x="306" y="103" width="8" height="1" rx="1" fill="#9be9a8"><title>1 commits (week 30)</title></rect>
  <rect x="316" y="102" width="8" height="2" rx="1" fill="#9be9a8"><title>32 commits (week 31)</title></rect>
  <rect x="326" y="97" width="8" height="7" rx="1" fill="#9be9a8"><title>92 commits (week 32)</title></rect>
  <rect x="336" y="102" width="8" height="2" rx="1" fill="#9be9a8"><title>29 commits (week 33)</title></rect>
  <rect x="346" y="103" width="8" height="1" rx="1" fill="#9be9a8"><title>16 commits (week 34)</title></rect>
  <rect x="356" y="102" width="8" height="2" rx="1" fill="#9be9a8"><title>28 commits (week 35)</title></rect>
  <rect x="366" y="97" width="8" height="7" rx="1" fill="#9be9a8"><title>88 commits (week 36)</title></rect>
  <rect x="376" y="102" width="8" height="2" rx="1" fill="#9be9a8"><title>24 commits (week 37)</title></rect>
  <rect x="386" y="103" width="8" height="1" rx="1" fill="#9be9a8"><title>2 commits (week 38)</title></rect>
  <rect x="396" y="103" width="8" height="1" rx="1" fill="#9be9a8"><title>18 commits (week 39)</title></rect>
  <rect x="406" y="103" width="8" height="1" rx="1" fill="#9be9a8"><title>6 commits (week 40)</title></rect>
  <rect x="416" y="103" width="8" height="1" rx="1" fill="#9be9a8"><title>8 commits (week 41)</title></rect>
  <rect x="426" y="102" width="8" height="2" rx="1" fill="#9be9a8"><title>31 commits (week 42)</title></rect>
  <rect x="436" y="103" width="8" height="1" rx="1" fill="#9be9a8"><title>2 commits (week 43)</title></rect>
  <rect x="446" y="103" width="8" height="1" rx="1" fill="#9be9a8"><title>18 commits (week 44)</title></rect>
  <rect x="456" y="103" width="8" height="1" rx="1" fill="#9be9a8"><title>13 commits (week 45)</title></rect>
  <rect x="466" y="99" width="8" height="5" rx="1" fill="#9be9a8"><title>63 commits (week 46)</title></rect>
  <rect x="476" y="103" width="8" height="1" rx="1" fill="#9be9a8"><title>20 commits (week 47)</title></rect>
  <rect x="486" y="103" width="8" height="1" rx="1" fill="#9be9a8"><title>21 commits (week 48)</title></rect>
  <rect x="496" y="103" width="8" height="1" rx="1" fill="#9be9a8"><title>9 commits (week 49)</title></rect>
  <rect x="506" y="103" width="8" height="1" rx="1" fill="#9be9a8"><title>9 commits (week 50)</title></rect>
  <rect x="516" y="103" width="8" height="1" rx="1" fill="#9be9a8"><title>16 commits (week 51)</title></rect>
  <rect x="526" y="103" width="8" height="1" rx="1" fill="#9be9a8"><title>1 commits (week 52)</title></rect>
  <text x="16" y="118" fill="#656d76" font-size="9" font-family="-apple-system,BlinkMacSystemFont,'Segoe UI',Helvetica,Arial,sans-serif">Jul</text>
  <text x="46" y="118" fill="#656d76" font-size="9" font-family="-apple-system,BlinkMacSystemFont,'Segoe UI',Helvetica,Arial,sans-serif">Aug</text>
  <text x="96" y="118" fill="#656d76" font-size="9" font-family="-apple-system,BlinkMacSystemFont,'Segoe UI',Helvetica,Arial,sans-serif">Sep</text>
  <text x="136" y="118" fill="#656d76" font-size="9" font-family="-apple-system,BlinkMacSystemFont,'Segoe UI',Helvetica,Arial,sans-serif">Oct</text>
  <text x="176" y="118" fill="#656d76" font-size="9" font-family="-apple-system,BlinkMacSystemFont,'Segoe UI',Helvetica,Arial,sans-serif">Nov</text>
  <text x="226" y="118" fill="#656d76" font-size="9" font-family="-apple-system,BlinkMacSystemFont,'Segoe UI',Helvetica,Arial,sans-serif">Dec</text>
  <text x="266" y="118" fill="#656d76" font-size="9" font-family="-apple-system,BlinkMacSystemFont,'Segoe UI',Helvetica,Arial,sans-serif">Jan</text>
  <text x="306" y="118" fill="#656d76" font-size="9" font-family="-apple-system,BlinkMacSystemFont,'Segoe UI',Helvetica,Arial,sans-serif">Feb</text>
  <text x="346" y="118" fill="#656d76" font-size="9" font-family="-apple-system,BlinkMacSystemFont,'Segoe UI',Helvetica,Arial,sans-serif">Mar</text>
  <text x="396" y="118" fill="#656d76" font-size="9" font-family="-apple-system,BlinkMacSystemFont,'Segoe UI',Helvetica,Arial,sans-serif">Apr</text>
  <text x="436" y="118" fill="#656d76" font-size="9" font-family="-apple-system,BlinkMacSystemFont,'Segoe UI',Helvetica,Arial,sans-serif">May</text>
  <text x="486" y="118" fill="#656d76" font-size="9" font-family="-apple-system,BlinkMacSystemFont,'Segoe UI',Helvetica,Arial,sans-serif">Jun</text>
  <text x="526" y="118" fill="#656d76" font-size="9" font-family="-apple-system,BlinkMacSystemFont,'Segoe UI',Helvetica,Arial,sans-serif">Jul</text>
</svg>